<mxfile host="app.diagrams.net" modified="2023-12-10T03:33:26.104Z" agent="Mozilla/5.0 (Windows NT 10.0; Win64; x64) AppleWebKit/537.36 (KHTML, like Gecko) Chrome/119.0.0.0 Safari/537.36" etag="FfgXGnhZO6PTcvXmBz9c" version="22.1.7" type="github">
  <diagram name="PÃ¡gina-1" id="-KQa9ClLIeorRPxrN3ae">
    <mxGraphModel dx="1050" dy="522" grid="1" gridSize="10" guides="1" tooltips="1" connect="1" arrows="1" fold="1" page="1" pageScale="1" pageWidth="1169" pageHeight="827" math="0" shadow="0">
      <root>
        <mxCell id="0" />
        <mxCell id="1" parent="0" />
        <mxCell id="KoT_Q8M60xwdcmwNmuv--1" value="&amp;lt;abstract&amp;gt;&lt;br&gt;Usuario" style="shape=umlActor;verticalLabelPosition=top;verticalAlign=bottom;html=1;outlineConnect=0;fillColor=none;labelPosition=center;align=center;" parent="1" vertex="1">
          <mxGeometry x="310" y="105" width="30" height="60" as="geometry" />
        </mxCell>
        <mxCell id="KoT_Q8M60xwdcmwNmuv--2" value="&lt;p style=&quot;line-height: 1%;&quot;&gt;Interfaz del sistema&lt;/p&gt;" style="rounded=0;whiteSpace=wrap;html=1;fillColor=none;align=center;horizontal=1;verticalAlign=top;" parent="1" vertex="1">
          <mxGeometry x="405" y="120" width="180" height="130" as="geometry" />
        </mxCell>
        <mxCell id="KoT_Q8M60xwdcmwNmuv--3" value="Ingresar&amp;nbsp;" style="ellipse;whiteSpace=wrap;html=1;fillColor=none;" parent="1" vertex="1">
          <mxGeometry x="445" y="165" width="100" height="50" as="geometry" />
        </mxCell>
        <mxCell id="KoT_Q8M60xwdcmwNmuv--4" value="" style="endArrow=none;html=1;rounded=0;entryX=0;entryY=0.5;entryDx=0;entryDy=0;exitX=0.5;exitY=0.5;exitDx=0;exitDy=0;exitPerimeter=0;" parent="1" source="KoT_Q8M60xwdcmwNmuv--1" target="KoT_Q8M60xwdcmwNmuv--3" edge="1">
          <mxGeometry width="50" height="50" relative="1" as="geometry">
            <mxPoint x="340" y="190" as="sourcePoint" />
            <mxPoint x="395" y="310" as="targetPoint" />
          </mxGeometry>
        </mxCell>
        <mxCell id="RScqVSLN06rdiI3QDErG-1" value="Administrador&amp;nbsp;" style="shape=umlActor;verticalLabelPosition=bottom;verticalAlign=top;html=1;outlineConnect=0;fillColor=none;" vertex="1" parent="1">
          <mxGeometry x="260" y="229" width="30" height="60" as="geometry" />
        </mxCell>
        <mxCell id="RScqVSLN06rdiI3QDErG-2" value="Vendedor" style="shape=umlActor;verticalLabelPosition=bottom;verticalAlign=top;html=1;outlineConnect=0;fillColor=none;" vertex="1" parent="1">
          <mxGeometry x="360" y="227.5" width="30" height="60" as="geometry" />
        </mxCell>
        <mxCell id="RScqVSLN06rdiI3QDErG-3" value="" style="endArrow=block;html=1;rounded=0;exitX=0.5;exitY=0.5;exitDx=0;exitDy=0;exitPerimeter=0;endFill=0;" edge="1" parent="1" source="RScqVSLN06rdiI3QDErG-1">
          <mxGeometry width="50" height="50" relative="1" as="geometry">
            <mxPoint x="270" y="210" as="sourcePoint" />
            <mxPoint x="320" y="165" as="targetPoint" />
          </mxGeometry>
        </mxCell>
        <mxCell id="RScqVSLN06rdiI3QDErG-4" value="" style="endArrow=block;html=1;rounded=0;exitX=0.5;exitY=0.5;exitDx=0;exitDy=0;exitPerimeter=0;endFill=0;" edge="1" parent="1" source="RScqVSLN06rdiI3QDErG-2">
          <mxGeometry width="50" height="50" relative="1" as="geometry">
            <mxPoint x="285" y="269" as="sourcePoint" />
            <mxPoint x="330" y="165" as="targetPoint" />
          </mxGeometry>
        </mxCell>
      </root>
    </mxGraphModel>
  </diagram>
</mxfile>
